name analog
datacolumns 19
datarows 41
range 0.22 0.24
endheader
time	ground_force_vx	ground_force_vy	ground_force_vz	ground_force_px	ground_force_py	ground_force_pz	l_ground_force_vx	l_ground_force_vy	l_ground_force_vz	l_ground_force_px	l_ground_force_py	l_ground_force_pz	ground_torque_x	ground_torque_y	ground_torque_z	l_ground_torque_x	l_ground_torque_y	l_ground_torque_z
0.22	-0.0	-0.0	-0.0	-2.9610280990600586	37.78749084472656	-373.09326171875	3.776921272277832	-37.75083923339844	-394.1921997070313	-0.0	-0.0	-0.0	-0.0	-0.0	-0.0	104140.921875	-9009.74609375	-2190.656982421875
0.2205	-0.0	-0.0	-0.0	-2.8206493854522705	37.56194686889648	-374.8071899414063	3.954230308532715	-37.16652297973633	-393.5607299804688	-0.0	-0.0	-0.0	-0.0	-0.0	-0.0	104177.0546875	-9058.2490234375	-2207.446533203125
0.221	-0.0	-0.0	-0.0	-2.926931381225586	38.0035514831543	-372.1005859375	4.173329830169678	-37.17045211791992	-394.0587158203125	-0.0	-0.0	-0.0	-0.0	-0.0	-0.0	103697.1953125	-8918.525390625	-2201.6123046875
0.2215	-0.0	-0.0	-0.0	-2.7655258178710938	37.4899787902832	-373.1767883300781	4.511440753936768	-37.44839477539063	-395.09027099609375	-0.0	-0.0	-0.0	-0.0	-0.0	-0.0	103820.1015625	-8805.4140625	-2291.808837890625
0.222	-0.0	-0.0	-0.0	-2.777956247329712	37.39641571044922	-372.9088134765625	4.334243774414063	-37.18343353271485	-394.9738464355469	-0.0	-0.0	-0.0	-0.0	-0.0	-0.0	103830.4921875	-8621.3525390625	-2290.492919921875
0.2225	-0.0	-0.0	-0.0	-2.7486135959625244	37.5792350769043	-372.2516479492188	4.435539245605469	-37.22140884399414	-394.2096252441406	-0.0	-0.0	-0.0	-0.0	-0.0	-0.0	103699.96875	-8591.0224609375	-2338.486572265625
0.223	-0.0	-0.0	-0.0	-2.688351631164551	37.485347747802734	-372.4520568847656	4.363645553588867	-37.07836532592773	-393.3615112304688	-0.0	-0.0	-0.0	-0.0	-0.0	-0.0	103662.921875	-8526.0615234375	-2331.3564453125
0.2235	-0.0	-0.0	-0.0	-2.982647180557251	37.54072570800781	-369.4928588867188	4.835909843444824	-37.25504684448242	-393.9280395507813	-0.0	-0.0	-0.0	-0.0	-0.0	-0.0	103676.546875	-8627.224609375	-2254.87939453125
0.224	-0.0	-0.0	-0.0	-2.982752799987793	37.29008102416992	-371.0591125488281	5.0230255126953125	-37.16676330566406	-392.6637878417969	-0.0	-0.0	-0.0	-0.0	-0.0	-0.0	103397.9375	-8475.669921875	-2193.739990234375
0.2245	-0.0	-0.0	-0.0	-2.776961326599121	37.44010543823242	-370.55218505859375	5.205623149871826	-36.8416862487793	-392.031494140625	-0.0	-0.0	-0.0	-0.0	-0.0	-0.0	102897.453125	-8352.73046875	-2147.056884765625
0.225	-0.0	-0.0	-0.0	-3.1725778579711914	37.37908554077149	-370.6401672363281	5.150535106658936	-37.15021896362305	-390.5484619140625	-0.0	-0.0	-0.0	-0.0	-0.0	-0.0	102987.2890625	-8170.79638671875	-2139.808349609375
0.2255	-0.0	-0.0	-0.0	-3.780239343643189	37.23411560058594	-370.2213439941406	4.768242359161377	-37.1613883972168	-390.5041809082031	-0.0	-0.0	-0.0	-0.0	-0.0	-0.0	102629.125	-8141.20654296875	-2193.783203125
0.226	-0.0	-0.0	-0.0	-3.81938099861145	37.473934173583984	-370.2645568847656	4.734901428222656	-37.05641555786133	-389.7839965820313	-0.0	-0.0	-0.0	-0.0	-0.0	-0.0	102651.8203125	-7895.93505859375	-2180.746826171875
0.2265	-0.0	-0.0	-0.0	-3.545743227005005	37.4680061340332	-373.2692565917969	5.006782531738281	-37.32706832885742	-390.13287353515625	-0.0	-0.0	-0.0	-0.0	-0.0	-0.0	102427.8359375	-7800.77587890625	-2427.28466796875
0.227	-0.0	-0.0	-0.0	-3.89207124710083	37.57364273071289	-371.9231567382813	4.458090305328369	-37.19990158081055	-389.0199890136719	-0.0	-0.0	-0.0	-0.0	-0.0	-0.0	102147.1328125	-7777.0947265625	-2473.92431640625
0.2275	-0.0	-0.0	-0.0	-3.991533279418945	37.10498809814453	-371.9640808105469	4.386002540588379	-37.43195724487305	-387.9482116699219	-0.0	-0.0	-0.0	-0.0	-0.0	-0.0	101948.75	-7449.9794921875	-2622.345458984375
0.228	-0.0	-0.0	-0.0	-4.315164566040039	37.797847747802734	-371.4279174804688	4.241642951965332	-37.40928268432617	-389.0197448730469	-0.0	-0.0	-0.0	-0.0	-0.0	-0.0	102336.7265625	-7509.09130859375	-2622.429931640625
0.2285	-0.0	-0.0	-0.0	-4.364566326141357	38.02573013305664	-375.4570007324219	4.530774593353272	-37.47126007080078	-388.9548950195313	-0.0	-0.0	-0.0	-0.0	-0.0	-0.0	102249.6640625	-7286.29150390625	-2791.400390625
0.229	-0.0	-0.0	-0.0	-4.249175548553467	37.46766662597656	-376.8050842285156	4.034550666809082	-37.04609680175781	-389.26568603515625	-0.0	-0.0	-0.0	-0.0	-0.0	-0.0	102018.4921875	-7029.25439453125	-2687.2783203125
0.2295	-0.0	-0.0	-0.0	-4.533309459686279	38.03519821166992	-373.8594665527344	4.475133895874023	-37.23915100097656	-387.3380432128906	-0.0	-0.0	-0.0	-0.0	-0.0	-0.0	102157.6875	-7179.84912109375	-2673.748779296875
0.23	-0.0	-0.0	-0.0	-4.678989887237549	37.85493087768555	-374.788818359375	4.346828460693359	-36.83014678955078	-388.3208923339844	-0.0	-0.0	-0.0	-0.0	-0.0	-0.0	102135.90625	-7223.39453125	-2786.112548828125
0.2305	-0.0	-0.0	-0.0	-4.906578063964844	37.61302947998047	-374.7886962890625	4.346828460693359	-36.95093536376953	-388.7983093261719	-0.0	-0.0	-0.0	-0.0	-0.0	-0.0	101699.828125	-7044.05029296875	-2662.752197265625
0.231	-0.0	-0.0	-0.0	-4.711833477020264	37.45980072021485	-376.3605651855469	4.363097667694092	-36.87873840332031	-388.704833984375	-0.0	-0.0	-0.0	-0.0	-0.0	-0.0	102062.125	-7285.3984375	-2705.69189453125
0.2315	-0.0	-0.0	-0.0	-5.222344875335693	37.50762939453125	-374.3707275390625	4.468002796173096	-36.71814727783203	-390.4154052734375	-0.0	-0.0	-0.0	-0.0	-0.0	-0.0	102485.828125	-7020.35693359375	-2686.767822265625
0.232	-0.0	-0.0	-0.0	-4.954996109008789	37.53185272216797	-375.2372741699219	4.451735973358154	-36.94228744506836	-390.92230224609375	-0.0	-0.0	-0.0	-0.0	-0.0	-0.0	102600.8359375	-7074.27880859375	-2821.717041015625
0.2325	-0.0	-0.0	-0.0	-5.198526859283447	37.39423370361328	-372.4764099121094	3.959645748138428	-36.75791931152344	-391.2716979980469	-0.0	-0.0	-0.0	-0.0	-0.0	-0.0	103082.921875	-6990.1591796875	-2883.932373046875
0.233	-0.0	-0.0	-0.0	-5.312355995178223	37.16738128662109	-373.2799072265625	3.84682822227478	-36.80606842041016	-394.8586730957031	-0.0	-0.0	-0.0	-0.0	-0.0	-0.0	103550.3359375	-7074.865234375	-2962.227783203125
0.2335	-0.0	-0.0	-0.0	-5.336482524871826	36.75399398803711	-373.2776489257813	4.27421236038208	-36.70157623291016	-393.9373168945313	-0.0	-0.0	-0.0	-0.0	-0.0	-0.0	103471.84375	-7067.42236328125	-2994.214111328125
0.234	-0.0	-0.0	-0.0	-4.85711669921875	37.127662658691406	-373.698486328125	3.62107515335083	-36.902469635009766	-396.8891906738281	-0.0	-0.0	-0.0	-0.0	-0.0	-0.0	104253.3046875	-7277.37744140625	-3018.98388671875
0.23450000000000001	-0.0	-0.0	-0.0	-5.474005699157715	37.15858840942383	-373.3748779296875	3.3143579959869385	-37.207916259765625	-396.98541259765625	-0.0	-0.0	-0.0	-0.0	-0.0	-0.0	104558.1796875	-7108.66455078125	-3097.513916015625
0.23500000000000001	-0.0	-0.0	-0.0	-6.073371410369873	37.31358337402344	-375.33880615234375	3.298290967941284	-36.990867614746094	-398.5079040527344	-0.0	-0.0	-0.0	-0.0	-0.0	-0.0	104708.4453125	-7363.6708984375	-3175.754638671875
0.23550000000000001	-0.0	-0.0	-0.0	-6.333946228027344	37.23139190673828	-374.6605224609375	3.750706911087036	-36.846038818359375	-401.398681640625	-0.0	-0.0	-0.0	-0.0	-0.0	-0.0	105081.2265625	-7194.86328125	-3083.4404296875
0.23600000000000002	-0.0	-0.0	-0.0	-6.356588363647461	37.56513595581055	-374.76080322265625	3.8395676612854	-36.886749267578125	-403.3685302734375	-0.0	-0.0	-0.0	-0.0	-0.0	-0.0	105348.8671875	-7284.90576171875	-3086.372802734375
0.23650000000000002	-0.0	-0.0	-0.0	-6.63346004486084	37.58761215209961	-376.42669677734375	3.757631540298462	-36.84596633911133	-404.2185974121094	-0.0	-0.0	-0.0	-0.0	-0.0	-0.0	106037.859375	-7351.78662109375	-3102.373046875
0.23700000000000002	-0.0	-0.0	-0.0	-6.550463199615479	37.90595626831055	-376.45166015625	3.919136047363281	-36.95005035400391	-404.2181701660156	-0.0	-0.0	-0.0	-0.0	-0.0	-0.0	106336.09375	-7745.75390625	-3086.354248046875
0.23750000000000002	-0.0	-0.0	-0.0	-7.340970039367676	37.81697845458984	-376.8669128417969	3.877859592437744	-36.86165618896485	-405.6764526367188	-0.0	-0.0	-0.0	-0.0	-0.0	-0.0	106711.7109375	-7620.994140625	-3048.211181640625
0.23800000000000002	-0.0	-0.0	-0.0	-7.592914581298828	37.66049957275391	-379.04779052734375	4.232553005218506	-36.726104736328125	-407.335693359375	-0.0	-0.0	-0.0	-0.0	-0.0	-0.0	106879.921875	-7860.83837890625	-3099.927001953125
0.23850000000000002	-0.0	-0.0	-0.0	-7.331075191497803	37.59157180786133	-379.0246887207031	4.461202144622803	-36.94401931762695	-405.3260498046875	-0.0	-0.0	-0.0	-0.0	-0.0	-0.0	107010.859375	-7879.81005859375	-3049.106201171875
0.23900000000000002	-0.0	-0.0	-0.0	-7.199943065643311	36.94726943969727	-379.1903381347656	4.46698808670044	-36.29016876220703	-406.6997680664063	-0.0	-0.0	-0.0	-0.0	-0.0	-0.0	106704.171875	-7608.9765625	-2972.44482421875
0.23950000000000002	-0.0	-0.0	-0.0	-7.226051330566406	37.35615158081055	-378.6505737304688	5.171188354492188	-36.3572998046875	-405.9611511230469	-0.0	-0.0	-0.0	-0.0	-0.0	-0.0	106454.875	-7813.224609375	-2729.403076171875
0.24	-0.0	-0.0	-0.0	-7.152542591094971	36.87930679321289	-378.007080078125	5.087817192077637	-36.170318603515625	-404.666748046875	-0.0	-0.0	-0.0	-0.0	-0.0	-0.0	106556.109375	-7886.59912109375	-2718.95947265625
